<svg width="45" height="33" viewBox="0 0 45 33" fill="none" xmlns="http://www.w3.org/2000/svg">
<g clip-path="url(#clip0_1_15)">
<path fill-rule="evenodd" clip-rule="evenodd" d="M44.7982 21.3435L40.7265 21.4397L40.8524 32.4334H31.9057L31.5355 21.3694L35.5443 21.3435L33.7787 12.3043L27.2528 8.87293L30.4362 7.32198C30.7841 5.63037 32.2277 4.90856 32.2277 3.85362C32.2277 2.37299 29.7995 2.37299 29.7995 4.34592L28.2448 3.97577C28.4225 1.88068 29.1628 0.574032 31.6392 0.574032C33.6454 0.574032 34.6004 1.6845 34.6004 3.76478C34.6004 5.4712 33.3345 6.07085 33.1198 7.33308L43.0326 12.2969L44.7982 21.3435ZM22.1002 32.4482H4.53633V21.8617L0.205505 21.9654L1.87121 12.2265L11.9284 7.32198C12.2763 5.63037 13.7199 4.90856 13.7199 3.85362C13.7199 2.37299 11.2917 2.37299 11.2917 4.34592L9.73703 3.97577C9.9147 1.88068 10.655 0.574032 13.1314 0.574032C15.1376 0.574032 16.0926 1.6845 16.0926 3.76478C16.0926 5.4712 14.8267 6.07085 14.612 7.33308L24.5248 12.3043L26.2904 21.3435L22.1558 21.4397L22.1002 32.4482ZM21.1749 7.34789C21.5154 5.63777 22.9738 4.91226 22.9738 3.85362C22.9738 2.37299 20.5456 2.37299 20.5456 4.34592L18.9909 3.97577C19.1686 1.88068 19.9089 0.574032 22.3853 0.574032C24.3915 0.574032 25.3465 1.6845 25.3465 3.76478C25.3465 5.58225 23.914 6.14488 23.8252 7.58479L21.1749 7.34789Z" fill="#111111"/>
</g>
<defs>
<clipPath id="clip0_1_15">
<rect width="44.6593" height="32" fill="white" transform="translate(0.170349 0.5)"/>
</clipPath>
</defs>
</svg>
