<svg width="248" height="148" viewBox="0 0 248 148" fill="none" xmlns="http://www.w3.org/2000/svg">
<g clip-path="url(#clip0_2_467)">
<path d="M130.868 10.0878C130.806 9.75909 130.765 9.42711 130.743 9.09354C130.417 4.41127 133.946 0.351064 138.635 0.0211966C143.328 -0.305365 147.393 3.22402 147.72 7.90628C148.048 12.5885 144.517 16.6488 139.829 16.9786C139.532 17.0011 139.238 17.0051 138.951 16.9938C138.761 17.0427 138.647 17.0659 138.484 17.21C138.001 17.961 139.711 17.8208 138.549 21.103C138.549 21.103 138.541 21.4632 138.411 21.8235C138.32 23.0835 137.835 26.8171 137.765 28.8056C138.012 29.0938 138.082 29.2339 138.055 29.9327C137.945 30.8773 137.728 33.1924 137.379 34.6758C137.083 35.947 136.563 36.1896 136.144 36.5009C135.555 39.1346 135.4 41.3161 133.888 44.5149C133.751 46.9397 133.58 47.6001 133.071 48.784C133.014 52.3544 133.261 52.8859 130.849 58.5392C130.226 61.1835 130.819 63.0126 131.476 65.76C132.149 68.5833 134.014 69.7633 134.291 72.6548C134.945 79.4643 134.781 84.1003 133.318 89.4397L134.595 92.4594C136.18 93.1852 140.112 95.1697 137.932 98.3111C141.002 99.9227 145.641 101.634 149.467 104.902C151.006 106.182 152.632 107.578 154.091 109.216C156.869 109.648 156.572 109.868 158.631 111.132C164.685 114.838 174.392 122.191 180.02 127.397C180.989 127.962 181.384 128.369 182.167 128.779C182.289 129.013 182.322 129.067 182.295 129.131C182.026 129.81 182.036 129.83 181.793 130.372C182.097 130.707 182.663 131.02 183.001 131.314C183.318 131.412 183.318 131.261 183.861 131.128C184.567 131.788 185.442 132.32 185.756 132.289C186.714 132.047 186.55 132.244 187.36 131.34C187.651 131.041 188.139 131.344 188.139 131.344C188.443 130.988 189.096 130.278 189.967 129.765C190.662 129.356 191.989 129.31 191.989 129.31C192.433 129.314 192.35 129.769 192.311 129.917C191.81 130.175 190.747 130.46 190.149 130.899C188.849 132.242 187.831 134.053 187.831 134.053C190.449 133.696 192.057 134.345 194.238 134.095C195.427 134.026 196.305 134.103 197.554 133.2C197.554 133.2 198.755 132.346 199.831 131.893C200.875 131.439 201.867 131.681 202.787 132.348C203.436 133.08 203.827 133.084 202.839 134.117C202.483 134.518 201.966 134.967 201.309 135.616C200.154 136.755 198.599 138.275 196.989 139.532C195.359 140.803 193.508 141.945 192.353 142.468C189.439 144.559 190.127 144.013 187.836 146.085C187.547 146.343 186.779 146.805 186.407 147.052C185.504 147.644 185.222 147.151 184.633 146.066C184.633 146.066 184.363 145.661 183.918 144.795C183.432 143.85 183.068 142.77 183.215 142.788C182.672 142.719 180.228 139.858 180.222 139.244C179.705 139.126 177.501 136.995 177.422 136.588L175.469 135.024C173.235 135.488 172.723 134.102 166.822 129.921C166.149 129.909 165.109 129.546 163.618 128.442C160.956 126.312 154.568 121.494 153.485 120.943C152.322 120.351 150.932 119.794 150.079 119.091C148.803 118.857 148.104 118.723 147.465 118.545C146.813 118.367 146.219 118.136 144.567 117.915C141.877 117.582 139.087 116.47 136.432 115.142C135.174 114.547 134.08 114.244 132.997 113.779C130.569 112.755 128.487 111.833 126.874 111.461C126.258 111.4 123.332 110.523 121.798 109.629C121.266 109.355 120.958 109.094 120.608 109.014C119.803 108.828 119.286 109.146 118.922 109.269C116.954 110.293 115.111 111.177 113.408 112.092C111.823 112.938 110.364 113.817 108.818 114.707C107.423 115.511 105.812 116.269 104.156 117.059C104.156 117.059 99.4325 119.423 96.8528 120.342C94.6146 122.167 90.0397 125.323 87.2475 126.887C85.8647 127.543 83.1784 129.243 81.9392 129.623C81.2322 130.191 78.7133 131.986 76.7413 133.466C75.2175 134.604 74.0663 135.564 74.0663 135.564C73.1812 136.357 73.2415 136.733 71.5587 136.019C71.0914 136.402 70.7306 136.641 70.4301 136.861C69.2147 137.742 69.1114 137.53 68.6672 137.506C67.8199 138.239 67.7133 137.86 66.9726 138.703C66.486 139.455 66.9838 139.275 65.9578 139.64C65.7413 139.724 65.6387 139.985 65.4719 140.129C64.6471 140.808 64.6437 142.725 62.6678 142.862C61.5239 143.677 61.8165 144.661 60.9426 144.618C60.9963 145.464 59.3963 146.698 59.1077 146.694C56.5882 147.562 56.4134 145.712 53.3889 147.092C52.9976 147.272 52.4237 147.765 51.6677 147.908C50.3378 148.159 48.7305 147.896 47.7502 147.138C46.2071 145.95 44.7865 143.658 44.7865 143.658C44.296 142.501 44.5813 141.769 46.1124 140.675C46.7506 140.27 46.8684 139.966 47.9402 139.893C48.4724 139.692 48.3274 139.999 49.278 139.659C49.8288 139.461 49.8288 139.602 50.9382 139.507C51.1924 139.336 51.5499 139.275 52.0285 139.12C52.9063 138.831 53.7616 138.509 53.7616 138.509C53.7616 138.509 53.9853 138.285 54.8293 138.365C55.5436 138.073 56.2771 137.639 56.6531 137.506C56.5577 136.377 56.6795 136.43 57.2038 135.975C57.8572 135.412 57.975 135.504 58.4616 135.852C58.6668 135.734 58.7654 135.694 58.7429 135.522C58.6628 134.934 58.1577 134.657 58.31 133.36C58.0856 132.84 57.7552 132.199 57.8274 131.811C57.934 131.394 58.0366 131.192 58.2908 131.059C58.5609 130.916 58.6482 131.109 58.7926 131.271C59.0507 131.571 59.2599 132.46 59.2599 132.46C59.3513 133.462 59.6624 134.76 60.654 134.027C61.2392 133.435 61.3531 131.857 62.5459 132.195L63.3972 132.934C64.1195 132.256 64.1539 132.256 64.5868 131.983C64.5868 131.983 63.9103 131.3 64.5034 130.768C64.9099 130.407 65.3997 130.149 66.2702 129.186C68.6599 126.549 69.8872 125.383 72.4716 123.258C77.6277 119.023 83.4941 116.053 87.2217 114.576C88.4371 113.035 89.6194 112.011 92.3169 111.753C95.5235 106.346 101.664 101.517 103.074 100.746C104.221 98.67 104.719 98.8908 106.22 98.4737C107.409 97.5218 107.679 97.5218 108.211 96.5275C108.728 94.4756 107.018 88.9921 111.383 88.7152C112.311 87.4069 112.079 87.7209 113.112 86.4841C112.413 84.7614 112.125 83.3203 111.935 82.0788C111.9 81.9347 110.202 80.7395 110.684 79.1794C109.963 78.322 108.613 76.321 108.192 75.3836C107.998 75.3876 107.838 75.3149 107.626 75.2858C107.405 75.2508 107.131 75.2633 106.824 75.2369C106.144 76.9887 105.403 77.1189 104.195 77.5056C102.037 82.0986 101.277 84.0428 95.1707 87.8399C92.7465 90.5503 91.9714 93.57 91.9826 93.525C91.5649 94.4201 91.7125 95.6728 91.933 96.3444C91.6139 97.3386 91.6973 97.4371 91.6973 97.4371C91.8304 97.8126 92.1766 98.3097 92.6016 98.4155C93.335 98.6092 94.0685 98.5781 94.0261 99.3939C93.9275 100.415 92.5863 100.247 91.9515 100.134C89.5082 99.7462 90.28 98.1564 88.7178 98.6872C87.5209 99.4692 87.0728 101.776 85.1193 101.477C84.8611 101.306 84.9405 100.802 85.1153 100.438C85.3894 99.8685 85.8752 99.3978 85.5866 99.1843C84.3128 99.5915 83.0412 100.005 81.7717 100.426C80.5748 100.752 79.2635 100.156 80.4418 99.3701C80.9892 99.1579 81.7717 98.8915 82.7368 98.274C82.7368 98.274 83.234 97.5984 82.2807 97.9362C81.2394 98.3077 79.7043 98.5391 78.6028 98.4182C78.6028 98.4182 76.319 98.1187 76.0264 97.9395C75.7298 97.7604 75.4604 97.0557 76.1747 97.0597C77.0789 97.0676 79.3435 96.8012 81.0991 96.3345C81.9464 96.0046 83.5577 95.0527 84.4619 94.6045C84.4619 94.6045 85.4423 93.1779 85.9818 92.897C86.8821 91.8618 87.6421 91.2503 88.4397 90.1913C89.2189 88.5856 90.0245 86.0445 92.6042 82.1092C93.7971 80.2953 95.2793 78.1825 97.1447 76.2932C97.1447 76.2932 97.6273 73.2696 100.055 71.1178C100.592 69.8579 101.405 68.3745 102.206 67.0008C102.518 66.4733 102.814 66.0145 103.11 65.5134C103.863 64.3334 104.653 62.1367 107.587 61.791C107.587 61.791 108.84 60.8655 109.323 60.2078C110.076 59.5665 109.904 58.569 110.516 57.8663C109.581 56.956 107.191 55.2445 106.959 52.8654C106.712 50.3421 107.612 48.2664 109.14 46.7301C110.835 45.0378 112.621 44.1917 114.79 44.3206C117.499 44.7225 118.012 45.6182 118.875 46.506C119.703 47.3482 120.011 46.8062 120.36 47.7925C122.633 48.396 122.507 48.1302 122.488 49.8001C122.837 50.2701 123.422 50.707 123.414 51.6821C124.178 50.0995 124.33 49.808 126.371 48.0661C126.853 46.6508 127.181 45.2586 127.605 43.8433C128.003 42.5344 128.497 41.1872 128.88 40.1738C128.474 37.3127 129.309 36.8387 130.423 34.3307C130.226 33.9856 130.268 33.8871 130.351 33.3213C130.784 31.6633 131.461 29.4699 131.863 28.0394C131.863 28.0394 131.996 27.4702 132.585 27.4286C133.095 25.6186 133.859 22.2492 133.988 21.5624C134.512 19.6691 134.174 19.0616 133.771 17.9953C133.642 17.6463 133.702 17.1492 133.479 16.7618C132.844 15.6578 132.161 14.2233 131.698 13.1987C131.397 12.5462 130.922 10.0871 130.922 10.0871C130.514 8.83176 130.868 10.0878 130.868 10.0878Z" fill="#111111"/>
</g>
<defs>
<clipPath id="clip0_2_467">
<rect width="158.882" height="148" fill="white" transform="translate(44.5588)"/>
</clipPath>
</defs>
</svg>
