<svg width="248" height="148" viewBox="0 0 248 148" fill="none" xmlns="http://www.w3.org/2000/svg">
<path d="M38.8646 67.6258L42.9911 76.41H34.709L38.8355 67.6258H38.8646ZM33.0165 80.2262H44.7127L46.9098 84.9291H51.7183L41.0616 63.0707H36.7272L26.0705 84.9291H30.8194L33.0165 80.2262ZM179.153 67.6258L183.28 76.41H174.996L179.123 67.6258H179.153ZM173.305 80.2262H185L187.197 84.9291H192.007L181.349 63.0707H177.014L166.359 84.9291H171.108L173.305 80.2262ZM129.761 73.9557C129.761 80.6406 134.718 85.4029 141.96 85.4029C146.68 85.4029 149.233 83.6571 151.461 81.8242L148.996 78.6282C147.483 79.7829 145.344 81.3795 142.05 81.3795C137.479 81.3795 134.391 78.334 134.391 73.9557C134.391 69.5788 137.448 66.6203 141.872 66.6203C144.841 66.6203 146.799 67.5664 148.432 68.9268L150.866 65.7032C148.58 63.8096 145.909 62.5969 141.872 62.5969C134.926 62.5969 129.761 67.3302 129.761 73.9557ZM215.933 65.5264C213.291 63.6328 210.857 62.5969 206.79 62.5969C199.725 62.5969 194.531 67.2708 194.531 73.9557C194.531 80.6696 199.606 85.4029 206.79 85.4029C211.363 85.4029 214.508 83.8642 217.121 81.4693V73.0676H206.493V76.7954H212.964V79.6931C212.045 80.4334 210.145 81.4693 206.909 81.4693C202.309 81.4693 199.101 78.334 199.101 73.9557C199.101 69.5788 202.338 66.5899 206.79 66.5899C209.878 66.5899 211.897 67.5968 213.499 68.7501L215.933 65.5264ZM14.3743 75.4336C15.443 75.4336 16.1859 75.5827 16.8083 76.0551C17.403 76.4998 17.8174 77.2097 17.8174 78.1849C17.8174 79.1613 17.403 79.9003 16.8083 80.345C16.1859 80.8174 15.443 80.9361 14.3743 80.9361H5.67761V75.4336H14.3743ZM13.5135 67.0636C14.761 67.0636 15.4139 67.2998 15.8588 67.7142C16.2747 68.1589 16.5117 68.721 16.5117 69.3412C16.5117 69.9627 16.2747 70.5249 15.8588 70.9682C15.4139 71.3812 14.761 71.6188 13.5135 71.6188H5.67761V67.0636H13.5135ZM77.574 84.9291H96.097V80.9361H81.9084V75.4336H92.5346V71.6188H81.9084V67.0636H95.5037V63.0707H77.574V84.9291ZM233.805 67.6258L237.93 76.41H229.648L233.774 67.6258H233.805ZM227.956 80.2262H239.651L241.848 84.9291H246.657L236 63.0707H231.667L221.009 84.9291H225.759L227.956 80.2262ZM161.341 63.0707H157.007V84.9291H161.341V63.0707ZM71.5775 80.9361H61.0692V63.0707H56.7347V84.9291H71.5775V80.9361ZM107.14 78.3036C107.14 73.6601 106.932 69.5788 106.932 69.5788H106.992C106.992 69.5788 109.01 72.4475 112.692 76.9722L119.164 84.9291H123.408V63.0707H119.074V69.8149C119.074 74.4584 119.251 78.5702 119.251 78.5702H119.193C119.193 78.5702 117.173 75.7015 113.522 71.145L107.052 63.0707H102.806V84.9291H107.14V78.3036ZM14.6709 84.9291C17.1646 84.9291 18.6782 84.3974 19.8661 83.4803C21.4394 82.2676 22.4194 80.374 22.4194 78.0965C22.4194 74.8728 20.282 73.1574 18.5008 72.7126V72.6546C20.1933 71.8853 21.1137 70.1395 21.1137 68.4241C21.1137 66.4725 20.3416 65.112 19.1246 64.2543C17.9366 63.4256 16.3343 63.0707 13.544 63.0707H1.34314V84.9291H14.6709Z" fill="#111111"/>
</svg>
