<svg width="248" height="148" viewBox="0 0 248 148" fill="none" xmlns="http://www.w3.org/2000/svg">
<g clip-path="url(#clip0_2_380)">
<path fill-rule="evenodd" clip-rule="evenodd" d="M224.826 91.9059V77.3546H240.661V69.9208H224.826V58.3861H244.46V50.9498H216.719V99.3372H246.483V91.9059H224.826ZM202.54 101.197L202.602 50.8871H194.496L194.623 82.738L159.033 49.5419L158.97 99.3347H167.076L166.947 68.7035L202.54 101.197ZM144.777 99.3347L144.782 50.8871H136.678L136.67 99.3347H144.777ZM98.3641 99.3372H126.545V91.9059H106.471V50.8871H98.3641V99.3372ZM56.4398 99.3372H86.2054V91.9059H64.5465V77.3546H80.3777V69.9208H64.5465V58.3861H84.1794V50.9498H56.4398V99.3372ZM9.06472 74.8575C9.06472 65.6267 15.3983 57.2317 26.1632 57.2317C31.1032 57.2317 35.9786 59.0261 39.3362 62.359L43.6413 56.6544C42.0591 54.732 35.9786 49.7979 26.1632 49.7979C10.9643 49.7979 0.452209 61.4605 0.452209 75.0482C0.452209 88.9571 11.5347 100.492 27.0486 100.492C33.888 100.492 39.5892 98.2506 43.9588 94.0192L40.2216 88.6985C38.322 90.6236 33.4467 93.1232 27.4305 93.1232C16.601 93.1232 9.06472 84.9841 9.06472 74.8575Z" fill="#111111"/>
</g>
<defs>
<clipPath id="clip0_2_380">
<rect width="248" height="52" fill="white" transform="translate(0 48)"/>
</clipPath>
</defs>
</svg>
