<svg width="120" height="145" viewBox="0 0 120 145" fill="none" xmlns="http://www.w3.org/2000/svg">
<path d="M88.6767 0.95838C98.9397 0.95838 109.204 0.956891 119.467 0.959869C119.473 3.25901 119.455 5.55964 119.478 7.86026C116.87 7.97343 114.204 8.26381 111.803 9.34934C109.367 10.4379 107.326 12.4183 106.275 14.8709C93.7948 44.0538 81.3238 73.2398 68.8574 102.429C68.6418 102.908 68.4682 103.404 68.2167 103.867C63.7528 103.815 59.2875 103.86 54.8236 103.843C52.8536 99.9494 50.9151 96.0391 48.9287 92.1541C46.6519 98.2236 44.3615 104.287 42.0847 110.355C56.81 110.357 71.5354 110.355 86.2607 110.357C88.9567 110.392 91.7335 110.281 94.2558 109.232C98.4472 107.557 101.784 104.32 104.499 100.81C107.778 96.5573 110.266 91.7699 112.482 86.9051C114.969 86.8842 117.454 86.9125 119.939 86.9081C115.226 96.9206 110.49 106.924 105.736 116.917C71.8033 116.919 37.8723 116.917 3.93988 116.917C4.76619 114.772 5.55208 112.608 6.43826 110.485C6.49215 110.266 6.76609 110.321 6.93225 110.3C11.1686 110.269 15.4333 110.105 19.5903 109.228C21.7534 108.723 23.9913 108.05 25.6559 106.513C26.5361 105.678 26.81 104.458 27.1019 103.333C31.1092 92.6648 35.1225 81.9986 39.1328 71.3323C30.6571 53.368 22.1531 35.4142 13.6729 17.4514C12.9903 15.8804 12.0892 14.3244 10.6716 13.3014C7.7376 11.1154 3.92491 10.8384 0.392152 10.6985C0.389159 8.12383 0.392152 5.5507 0.390656 2.97608C12.3047 2.97162 24.2173 2.9731 36.1314 2.97459C36.1329 5.54921 36.1344 8.12383 36.1299 10.6985C34.5776 10.7967 32.9295 10.7714 31.5239 11.5353C30.8263 11.8629 30.4161 12.6879 30.5958 13.4384C30.8158 14.6668 31.7918 15.5439 32.2858 16.6533C37.317 27.4327 42.3482 38.2137 47.3943 48.9886C49.9227 41.9557 52.451 34.9243 54.9898 27.8958C55.3625 26.919 55.4942 25.7903 55.0691 24.8075C54.7353 24.0317 53.9778 23.5522 53.2309 23.2291C51.7789 22.6334 50.1831 22.6394 48.6443 22.5292C49.4302 20.3566 50.2205 18.1841 51.0349 16.0234C51.2235 15.9028 51.4855 15.9951 51.7025 15.9653C63.7902 15.9728 75.8795 15.9653 87.9687 15.9698C87.1334 18.1528 86.3026 20.3358 85.4763 22.5217C82.5648 22.6558 79.5634 22.7287 76.833 23.8604C75.5816 24.3816 74.3975 25.1783 73.658 26.3308C73.1446 27.1751 72.8257 28.1177 72.4814 29.038C67.4308 42.7405 62.3337 56.4251 57.34 70.1485C60.1063 76.3684 62.9894 82.5346 65.8111 88.7292C76.0576 64.6597 86.3011 40.5873 96.5596 16.5222C97.2512 15.0749 98.3769 13.754 98.4652 12.0893C98.5505 10.7863 97.579 9.66205 96.4533 9.12747C94.0268 8.01364 91.2994 7.95854 88.6767 7.86473C88.6738 5.56262 88.6738 3.2605 88.6767 0.95838Z" fill="#111111"/>
<path d="M107.309 130.559C110.544 133.892 113.753 137.246 116.957 140.607C116.952 137.483 116.97 134.358 116.967 131.234C117.521 131.235 118.075 131.229 118.63 131.222C118.632 135.681 118.632 140.143 118.63 144.602C115.392 141.286 112.203 137.925 108.981 134.593C108.986 137.736 108.974 140.881 108.972 144.026C108.417 144.031 107.863 144.029 107.309 144.029C107.308 139.538 107.306 135.049 107.309 130.559Z" fill="#111111"/>
<path d="M13.1385 131.018C16.7027 130.473 20.4735 133.248 20.7908 136.864C21.0902 138.932 20.2834 141.088 18.761 142.513C16.2581 144.949 11.7569 144.905 9.32733 142.382C8.01452 141.117 7.26606 139.292 7.34539 137.471C7.38132 134.303 10.0144 131.472 13.1385 131.018ZM13.14 132.656C11.0653 132.992 9.37673 134.804 9.08632 136.858C8.69113 139.191 10.1387 141.702 12.4035 142.464C14.3855 143.209 16.797 142.507 18.0694 140.825C19.7145 138.771 19.4361 135.458 17.4123 133.753C16.2746 132.724 14.6295 132.385 13.14 132.656Z" fill="#111111"/>
<path d="M38.8768 131.707C40.703 130.343 43.6864 130.907 44.7403 132.968C44.3002 133.216 43.8601 133.464 43.42 133.711C42.6281 132.48 40.6985 132.179 39.6342 133.224C39.1837 133.552 39.233 134.152 39.2809 134.645C39.4097 135.288 40.0983 135.561 40.6057 135.863C41.9141 136.548 43.4858 136.943 44.405 138.185C45.4303 139.571 45.2612 141.635 44.143 142.918C42.9739 144.326 40.8363 144.668 39.2016 143.931C37.9472 143.314 37.1718 142.012 36.9203 140.676C37.4816 140.543 38.046 140.421 38.6088 140.296C38.6657 141.514 39.6163 142.746 40.9096 142.768C42.655 142.957 44.0427 140.7 43.0263 139.26C41.941 137.79 39.8483 137.769 38.5998 136.499C37.1299 135.303 37.2781 132.726 38.8768 131.707Z" fill="#111111"/>
<path d="M98.4652 131.009C100.8 130.718 103.213 131.79 104.648 133.628C106.715 136.201 106.384 140.306 103.93 142.519C102.529 143.897 100.47 144.464 98.5356 144.26C96.624 144.135 94.8351 143.069 93.7319 141.526C92.5433 139.881 92.235 137.681 92.7978 135.747C93.5328 133.241 95.877 131.336 98.4652 131.009ZM98.1793 132.678C95.6046 133.114 93.7633 135.842 94.2154 138.38C94.5013 140.82 96.829 142.807 99.2915 142.76C100.971 142.789 102.573 141.842 103.478 140.457C104.854 138.473 104.492 135.543 102.719 133.911C101.559 132.742 99.7675 132.347 98.1793 132.678Z" fill="#111111"/>
<path d="M1.72891 131.225C2.26032 131.222 2.79173 131.222 3.32315 131.225C3.32464 135.005 3.32165 138.788 3.32464 142.568C4.64494 142.571 5.96373 142.568 7.28403 142.57C7.28702 143.055 7.28702 143.541 7.28553 144.028C5.43232 144.029 3.58062 144.031 1.72891 144.028C1.73041 139.76 1.73041 135.492 1.72891 131.225Z" fill="#111111"/>
<path d="M22.0797 131.235C22.6426 131.231 23.2054 131.232 23.7698 131.234C23.7742 133.753 23.7623 136.274 23.7757 138.794C23.8012 139.901 23.9389 141.12 24.7263 141.973C25.9792 143.195 28.4402 143.021 29.3144 141.437C29.756 140.692 29.8847 139.811 29.8728 138.959C29.8623 136.384 29.8623 133.81 29.8638 131.234C30.4266 131.231 30.9895 131.232 31.5523 131.234C31.5523 133.862 31.5583 136.49 31.5508 139.118C31.5538 140.311 31.3457 141.572 30.5793 142.531C28.9312 144.802 25.111 144.932 23.3057 142.786C22.448 141.892 22.0947 140.633 22.0827 139.42C22.0752 136.692 22.0812 133.963 22.0797 131.235Z" fill="#111111"/>
<path d="M33.6315 131.226C34.1854 131.22 34.7408 131.222 35.2961 131.225C35.2961 135.492 35.2976 139.76 35.2946 144.029C34.7408 144.029 34.1854 144.031 33.63 144.026C33.633 139.76 33.633 135.492 33.6315 131.226Z" fill="#111111"/>
<path d="M50.2999 131.237C50.9091 131.22 51.5214 131.22 52.1321 131.223C53.4105 134.335 54.6694 137.455 55.9253 140.576C57.1783 137.465 58.4671 134.37 59.6916 131.248C60.3188 131.196 60.9475 131.232 61.5763 131.223C59.7066 135.751 57.8294 140.277 55.9433 144.798C54.0242 140.293 52.174 135.759 50.2999 131.237Z" fill="#111111"/>
<path d="M62.3382 131.222C62.8921 131.229 63.4459 131.235 64.0013 131.233C64.0208 133.714 63.9983 136.197 64.0193 138.677C64.0582 139.855 64.1495 141.191 65.0536 142.064C66.097 142.953 67.7586 143.008 68.8723 142.217C69.5205 141.758 69.8768 140.996 70.0175 140.236C70.239 138.929 70.1597 137.599 70.1747 136.28C70.1836 134.599 70.1851 132.918 70.1821 131.236C70.715 131.23 71.2495 131.232 71.7839 131.233C71.8078 133.565 71.7883 135.896 71.7943 138.228C71.8318 139.674 71.7854 141.243 70.9007 142.464C69.3513 144.687 65.7856 144.927 63.8247 143.121C62.8442 142.218 62.3517 140.887 62.3442 139.574C62.3292 136.789 62.3412 134.006 62.3382 131.222Z" fill="#111111"/>
<path d="M73.8736 131.233C74.4514 131.235 75.0292 131.229 75.6085 131.223C75.6085 135.491 75.607 139.758 75.6085 144.028C75.0262 144.029 74.4454 144.029 73.8646 144.028C73.8586 139.763 73.8781 135.498 73.8736 131.233Z" fill="#111111"/>
<path d="M76.6474 131.234C81.8372 131.238 87.0256 131.225 92.2155 131.226C92.214 131.737 92.214 132.248 92.2155 132.76C91.22 132.764 90.226 132.76 89.2321 132.761C89.2276 136.517 89.2306 140.272 89.2306 144.028C88.6513 144.029 88.0734 144.029 87.4941 144.028C87.4911 140.272 87.5046 136.517 87.4881 132.761C85.4508 132.764 83.4135 132.76 81.3762 132.763C81.3732 136.518 81.3762 140.272 81.3747 144.028C80.8433 144.029 80.3119 144.029 79.7819 144.028C79.7804 140.272 79.7834 136.518 79.7804 132.763C78.7356 132.76 77.6922 132.764 76.6474 132.76C76.6459 132.251 76.6459 131.741 76.6474 131.234Z" fill="#111111"/>
</svg>
