<svg width="248" height="148" viewBox="0 0 248 148" fill="none" xmlns="http://www.w3.org/2000/svg">
<g clip-path="url(#clip0_2_410)">
<path d="M32.0625 96.9845C32.4752 95.9116 32.8466 94.88 32.8466 93.8071V93.7659H41.6359V93.9309C40.398 94.261 40.0679 95.7878 40.0679 96.9432L43.4103 121.908C43.6991 124.302 43.9467 125.663 46.01 127.108V127.273H36.189V127.108C37.9634 126.571 38.2935 125.003 38.2935 123.311L35.405 98.8002L24.0159 127.933C21.4575 125.993 20.756 124.632 19.5181 121.785L9.82094 98.8414L6.89115 120.712C6.47851 123.806 6.14839 126.076 8.54174 127.108V127.273H0.247559V127.108C2.39332 125.209 2.68217 122.734 3.09481 119.969L5.98333 98.6763C6.18966 97.2321 6.72609 95.2101 4.41528 93.9309V93.7659H13.3284V93.8071C13.3284 94.6324 13.7411 95.3752 14.0299 96.118L23.6033 118.525L32.0625 96.9845Z" fill="#111111"/>
<path d="M67.55 96.5718C75.5553 96.5718 80.3008 103.752 80.3008 111.179C80.3008 118.772 75.3903 124.425 67.6326 124.425C59.6685 124.425 54.6342 117.08 54.6342 109.983C54.6342 102.225 59.6685 96.5718 67.55 96.5718ZM67.8801 92.8992C57.2339 92.6516 48.8159 100.739 48.8159 110.395C48.8159 120.835 57.3164 128.057 67.385 128.057C77.4948 128.057 86.0778 120.546 86.0778 110.148C86.0778 100.987 78.5677 92.858 67.8801 92.8992Z" fill="#111111"/>
<path d="M97.0129 120.629C97.0129 123.476 96.9717 125.498 99.6539 127.108V127.273H90.6582V127.108C93.3404 125.539 93.3404 123.476 93.3404 120.629V100.368C93.3404 97.5208 93.3404 95.4576 90.6995 93.9308V93.7658H98.1271V93.807C98.3334 94.426 98.5397 94.6736 98.8699 95.0862L99.5713 96.1178L118.182 119.597V100.327C118.182 97.4796 118.223 95.4163 115.541 93.8896V93.7245H124.495V93.8896C121.854 95.4163 121.854 97.4383 121.854 100.327V128.841C118.223 127.644 116.655 125.952 114.427 123.064L96.9717 100.946V120.629H97.0129Z" fill="#111111"/>
<path d="M155.444 100.079C152.638 98.3049 149.378 97.1908 146.035 97.1908C139.02 97.1908 134.11 102.308 134.11 109.694C134.11 117.163 139.185 123.806 147.026 123.806C150.863 123.806 154.66 122.445 157.878 120.588H158.043L155.444 126.489C153.05 127.603 150.409 128.015 147.768 128.015C135.76 128.015 128.333 121.331 128.333 110.437C128.333 99.9143 135.76 92.9818 146.2 92.9818C149.295 92.9818 152.431 93.5183 155.444 94.261V100.079Z" fill="#111111"/>
<path d="M175.993 123.559C179.46 123.765 182.472 122.61 184.989 120.464H185.154L182.513 127.231H161.633V127.066C164.233 126.159 163.903 122.403 163.903 120.093V100.946C163.903 98.5938 164.233 94.88 161.633 93.9309V93.7659H171.33V93.9309C168.731 94.88 169.102 98.6763 169.102 100.946V123.105L175.993 123.559Z" fill="#111111"/>
<path d="M197.203 122.981L203.682 123.6C207.024 123.889 210.532 122.816 213.09 120.588H213.214L210.903 127.273H189.693V127.108C192.293 126.2 192.004 122.445 192.004 120.134V100.946C192.004 98.635 192.334 94.9212 189.693 93.9308V93.807H205.951C206.818 93.807 207.684 93.8896 208.345 93.5594H208.51V99.5015H208.386C206.818 97.6859 204.713 97.4796 202.403 97.4796C200.628 97.4796 198.813 97.5209 197.203 97.8097V107.259H203.269C204.094 107.259 204.92 107.259 205.539 106.97H205.704V112.376H205.539C204.713 110.891 202.568 110.932 201 110.932H197.245V122.981H197.203Z" fill="#111111"/>
<path d="M229.802 93.7659C236.652 93.7659 240.366 97.3559 240.366 101.978C240.366 106.475 236.446 109.983 232.278 110.932L239.623 120.134C241.769 122.775 244.946 125.416 247.876 127.231H243.213C240.531 127.231 238.839 126.571 237.312 124.673L231.082 116.998L226.377 109.859C230.463 109.24 235.249 107.383 235.249 102.555C235.249 98.9239 232.072 96.7782 228.647 96.9432C227.45 96.9845 226.336 97.1496 225.181 97.3559V120.093C225.181 122.445 224.892 126.159 227.491 127.066V127.231H217.794V127.066C220.394 126.159 220.064 122.403 220.064 120.093V100.946C220.064 98.5938 220.394 94.88 217.794 93.9309V93.7659H229.802Z" fill="#111111"/>
<path d="M134.564 55.6786C134.564 55.6786 134.027 52.4187 134.811 49.7777C134.935 49.4889 135.183 48.7874 135.554 48.251C135.925 47.7145 136.462 47.3019 136.71 47.1781C138.071 46.2703 139.804 46.0639 141.785 47.2606C144.426 48.8699 144.591 50.8919 144.591 50.8919C144.591 50.8919 143.353 51.1807 142.28 52.3774C141.331 53.4503 140.919 54.8946 140.919 54.8946C140.919 54.8946 141.95 54.7295 143.106 55.1421C144.302 55.5548 144.632 56.6689 144.632 56.6689C144.302 56.5451 143.394 56.2975 142.321 56.6277C141.207 56.9578 140.506 58.0306 140.506 58.0306C140.506 58.0306 141.785 58.7321 142.115 59.0623C142.445 59.3924 142.693 61.0017 142.693 61.0017C142.693 61.0017 140.96 60.7954 139.557 61.1668C138.484 61.4556 137.452 62.0746 136.544 62.7348L136.875 64.7568C137.7 64.0553 138.814 63.3538 140.052 63.1062C142.198 62.6523 144.261 63.2713 144.261 63.2713C144.261 63.2713 144.756 62.1158 144.756 61.0842C144.756 60.0526 144.178 58.8972 143.724 58.4433C143.312 58.0306 144.674 58.2782 145.004 58.3608C145.334 58.4433 145.829 59.2686 145.829 59.2686C145.829 59.2686 146.943 58.0719 146.572 56.5039C146.159 54.7295 144.137 53.6153 144.137 53.6153C144.137 53.6153 144.385 53.2027 145.334 52.7488C146.283 52.3361 147.191 52.5837 147.191 52.5837C147.191 52.5837 147.067 52.006 146.778 51.0982C146.448 50.1904 146.2 49.6127 146.2 49.6127C146.2 49.6127 143.931 44.5371 139.185 44.2896C138.814 44.2483 137.824 44.2896 136.998 44.5784C136.462 44.7435 135.967 45.0736 135.637 45.2799C135.43 45.4037 135.265 45.5688 135.059 45.7338C135.018 45.7751 134.976 45.7751 134.976 45.8163C134.399 46.3528 133.945 46.9305 133.573 47.5907C133.532 47.6732 133.491 47.7558 133.45 47.8383C133.367 48.0446 133.243 48.251 133.161 48.4573C132.335 50.438 132.253 52.5837 132.335 54.1105L132.377 54.4406C132.377 54.6882 132.459 55.5135 132.542 56.3388C132.624 57.2054 132.789 58.0719 132.789 58.0719L136.751 83.4084H129.983L130.231 85.1827H138.855L134.564 55.6786Z" fill="#111111"/>
<path d="M116.82 51.6759C116.82 51.6759 116.242 51.3871 115.706 50.9744C115.169 50.6443 114.674 50.2316 114.592 50.1491C112.9 48.8699 111.373 46.5178 110.96 43.5468C110.507 40.5757 111.91 37.2746 111.91 37.2746C111.91 37.2746 111.579 36.8619 110.63 36.7794C109.722 36.6969 108.361 37.4809 108.361 37.4809C108.361 37.4809 108.526 36.6969 108.773 36.1192C109.021 35.5002 109.599 34.84 109.599 34.84C107.742 35.005 106.71 36.0366 106.05 36.9445C105.39 37.8935 105.142 39.2553 104.028 41.1947C102.914 43.1341 100.809 44.991 100.809 44.991C100.809 44.991 101.346 45.3212 103.533 47.2193C105.72 49.0762 106.421 51.6346 106.421 51.6346C107.164 54.2756 107.618 58.6496 108.031 59.8463C109.104 62.3222 110.548 63.6426 111.703 64.3854L112.116 62.1571C111.456 61.6207 110.754 60.9604 110.3 60.0939C109.681 58.8559 109.351 56.0912 109.351 56.0912C109.351 56.0912 109.104 52.0473 107.659 49.2C106.215 46.4353 103.863 44.7022 103.863 44.7022C103.863 44.7022 104.564 43.9594 105.142 43.1754C105.596 42.5977 106.091 41.7311 106.298 41.3598C106.38 41.236 106.463 41.0709 106.545 40.9059C106.751 40.5757 107.164 40.0806 107.948 40.2044C109.104 40.4107 108.938 41.6486 108.938 41.6486C108.938 41.6486 108.773 44.7022 110.135 47.6732C111.497 50.6443 114.715 52.6662 114.715 52.6662L109.475 85.1415H117.109L117.48 83.0782H111.786L116.82 51.6759Z" fill="#111111"/>
<path d="M128.91 19.6547L118.058 85.1828H119.956L128.745 31.869L131.634 49.7778C131.881 48.6636 132.212 47.5495 132.913 46.5179L128.91 19.6547Z" fill="#111111"/>
<path d="M124.454 65.417L127.466 85.2239H129.323L125.403 59.3923L124.454 65.417Z" fill="#111111"/>
<path d="M117.026 50.5617L120.08 31.6213L122.886 49.2825L123.876 43.3817L120.162 19.3657L115.211 49.365C115.211 49.365 115.665 49.7777 116.036 50.0253C116.449 50.2316 117.026 50.5617 117.026 50.5617Z" fill="#111111"/>
</g>
<defs>
<clipPath id="clip0_2_410">
<rect width="248" height="109.764" fill="white" transform="translate(0 19.1182)"/>
</clipPath>
</defs>
</svg>
