<svg width="248" height="148" viewBox="0 0 248 148" fill="none" xmlns="http://www.w3.org/2000/svg">
<g clip-path="url(#clip0_2_445)">
<path d="M77.2369 95.4637C73.6614 95.321 70.7361 94.3382 68.4487 92.5127C68.0122 92.164 66.972 91.1184 66.623 90.6774C65.6955 89.5057 65.0649 88.3654 64.6443 87.1002C63.35 83.2057 64.0161 78.0953 66.5496 72.4866C68.7187 67.6849 72.0659 62.9225 77.9055 56.3267C78.7657 55.3562 81.3273 52.5177 81.3438 52.5177C81.35 52.5177 81.2104 52.7606 81.0346 53.0565C79.5163 55.6114 78.2171 58.6209 77.5093 61.2262C76.3724 65.4067 76.5096 68.9943 77.911 71.7762C78.8777 73.6927 80.5351 75.3527 82.3987 76.2704C85.6614 77.8763 90.4381 78.0092 96.2716 76.6591C96.6732 76.5656 116.575 71.2583 140.498 64.8649C164.42 58.4708 183.997 53.2435 184 53.2478C184.007 53.2533 128.42 77.1481 99.5648 89.5445C94.995 91.5071 93.773 92.0028 91.6246 92.7606C86.1328 94.698 81.2134 95.6224 77.2369 95.4637Z" fill="#111111"/>
</g>
<defs>
<clipPath id="clip0_2_445">
<rect width="120" height="42.963" fill="white" transform="translate(64 52.5186)"/>
</clipPath>
</defs>
</svg>
