<svg width="248" height="148" viewBox="0 0 248 148" fill="none" xmlns="http://www.w3.org/2000/svg">
<g clip-path="url(#clip0_2_473)">
<path d="M98.7407 86.6297C97.4113 86.4484 94.5107 84.4845 92.1842 82.5507C92.0331 82.4299 91.6706 82.3392 91.2778 82.4299C90.885 82.5205 89.1326 82.9133 86.7456 83.3363C84.8723 83.6687 83.1803 83.9406 82.2739 84.0313C82.3343 83.9406 82.3947 83.8802 82.4552 83.7895C84.117 83.1248 87.924 81.5839 88.2866 81.4328C88.7096 81.2817 91.2778 80.1336 91.7008 79.9221C92.0029 79.771 91.3382 79.4689 91.0663 79.6804C89.0721 81.0702 85.2953 82.581 82.4854 83.7291C86.0205 78.6229 89.2232 73.6979 89.2836 73.3353C89.2836 73.2447 89.2232 72.9728 88.7398 73.003C88.2563 73.0332 87.3499 73.0634 86.8967 73.0936C86.4435 73.0936 86.0809 72.9426 85.96 72.8217C86.1413 73.7584 83.4825 78.5624 80.2797 83.6989C78.3762 84.6658 76.231 85.4513 71.8499 85.9348C69.6745 86.1765 67.8012 85.7233 66.9854 84.3334C66.1998 83.004 66.8645 81.0098 68.9795 80.0127C69.8558 79.5897 70.6715 79.4084 71.4269 79.3178C72.5448 79.4084 73.6023 79.8617 74.4181 80.3753C74.9318 80.6775 75.2943 80.2545 74.8109 80.0732C73.2096 79.4387 70.7924 78.8646 68.2846 79.771C67.5897 80.0127 66.8947 80.3149 66.2602 80.617C66.2602 80.617 66.2602 80.617 66.23 80.617C65.5049 80.9192 60.0965 83.7895 57.9211 84.8773C57.1355 85.27 56.7125 85.4211 55.8665 84.9981C54.537 84.3334 52.1199 81.4932 51.002 80.8587C50.4279 80.5264 50.3977 80.4962 50.307 80.194C46.7417 82.0975 43.9318 83.7593 40.7895 85.2398C39.732 85.7233 38.7651 85.693 37.7076 84.7866C36.6501 83.85 34.4444 81.2213 34.2934 80.9796C34.1423 80.7379 33.8402 80.5264 33.2963 80.5868C32.2086 80.7077 28.6735 81.1307 25.8031 81.4932C30.3051 80.466 37.1033 78.6833 44.0828 75.964C54.7183 71.8246 60.0361 67.4133 60.0361 64.543C60.0361 62.7301 58.2836 61.1589 50.5789 61.1589C44.1131 61.1589 37.0127 61.6424 28.9454 63.3042C15.1072 66.1745 0 72.3987 0 76.5381C0 78.7739 5.52924 80.466 12.1764 80.9494C13.1433 81.0098 13.808 81.0702 14.3821 81.1005C16.769 81.3724 15.4396 84.9981 14.8353 86.1765C14.6238 86.6297 14.3821 86.811 14.0799 86.9621C14.0799 87.2038 14.4727 87.3548 14.7144 87.3548C14.9864 87.3548 14.9864 87.3548 15.5906 85.7837C15.8324 85.1794 17.3129 81.9767 18.4308 80.466C20.2437 77.9884 20.9386 77.1122 21.6637 76.5079C21.5731 76.387 21.3012 76.2057 20.576 76.7194C18.7027 78.0488 15.4396 81.1005 13.2339 80.9796C12.9922 80.9796 12.7505 80.9494 12.4483 80.9192C7.34211 80.5566 2.20565 78.925 2.20565 76.2964C2.20565 72.2778 17.9776 65.6609 29.1267 63.3344C38.1306 61.4611 45.1706 61.2194 50.1862 61.2194C58.1628 61.2194 59.9152 62.8207 59.9152 64.543C59.9152 67.0507 55.5945 71.3412 44.0224 75.9036C33.4776 80.043 21.8752 81.6745 20.6667 82.0069C19.4581 82.3392 18.5214 83.0946 21.3314 82.4903C21.8148 82.3695 22.54 82.2486 23.4162 82.0371C25.0175 81.7652 26.347 81.4328 29.2778 81.2515C29.7914 81.2213 30.6676 81.4328 31.2719 81.9465C32.6618 83.155 34.2632 85.5722 35.5926 86.4786C36.1365 86.8714 37.7076 87.1433 38.2817 86.8714C39.3392 86.388 46.5906 82.2788 47.9201 81.5537C47.7992 81.7954 47.8294 81.8256 48.7359 82.4903C50.5487 83.8198 52.4522 86.1765 53.54 86.5995C54.2651 86.9016 54.7788 86.9016 55.1715 86.6599C56.078 86.116 61.4864 82.9133 64.0244 81.8558C64.0244 81.8558 64.3265 81.735 64.7797 81.5537C63.9942 82.1882 63.5107 82.9435 63.5107 83.8802C63.5107 85.4513 64.9912 86.2973 66.9552 86.5391C68.9191 86.7808 72.5448 86.2973 76.2612 85.27C77.9532 84.8168 79.2222 84.3938 80.1287 84.0615C79.615 84.9075 79.0712 85.7233 78.5273 86.5693C78.346 86.8412 78.346 86.9318 78.5575 86.9621C79.1316 87.0527 79.9776 86.8714 80.1287 87.1736C80.7934 86.2369 81.4883 85.27 82.153 84.273C83.694 84.001 87.1082 83.3363 88.1959 83.1852C89.3138 83.004 89.6462 83.0342 90.039 83.2759C90.6735 83.6687 92.6374 85.542 93.3021 86.0858C93.9064 86.5693 93.9669 86.7203 97.3207 86.7203C99.1637 86.7203 102.215 86.4182 102.518 86.3578C102.82 86.2671 102.276 86.2671 102.246 86.2067C101.49 86.388 100.795 86.4786 98.7407 86.6297Z" fill="#111111"/>
<path d="M168.022 65.4494C168.022 59.8295 160.801 57.4728 141.645 66.4767C137.083 68.6219 124.121 76.0245 124.121 82.0976C124.121 85.1492 126.538 87.5361 133.306 87.5361C143.428 87.5361 153.671 81.1005 156.178 79.5293C164.125 74.5137 168.022 69.619 168.022 65.4494ZM156.269 79.2876C152.281 81.7652 142.582 86.4182 135.058 86.4182C129.771 86.4182 127.293 84.1521 127.293 81.4631C127.293 75.6921 134.545 69.8909 141.827 66.4767C161.587 57.2613 167.841 60.4338 167.841 65.5098C167.871 69.7096 163.762 74.695 156.269 79.2876Z" fill="#111111"/>
<path d="M187.541 81.0702C186.06 81.6141 181.8 84.7564 180.984 85.1794C180.803 85.2701 180.652 85.3305 180.41 85.1794C179.957 84.8471 177.328 82.0975 176.633 81.6141C176.029 81.2213 174.881 81.3724 174.458 81.463C173.31 81.7652 168.294 84.4543 167.086 85.0283C166.723 85.1794 166.602 84.9981 166.633 84.7564C166.693 84.3032 167.327 80.9796 167.388 80.8285C167.448 80.6775 167.75 80.2242 166.391 80.2242C165.031 80.2242 160.076 81.1609 159.351 81.3422C158.898 81.463 159.018 81.7047 159.562 81.5235C160.378 81.2515 162.946 80.7077 163.551 80.6472C164.034 80.5868 164.215 80.7379 164.215 81.3724C164.215 81.6141 163.551 85.2096 163.611 85.6931C163.672 86.1765 163.943 86.2369 164.518 86.2369C166.572 85.3305 171.074 83.004 171.95 82.6112C172.645 82.2788 173.521 82.158 174.126 82.732C175.183 83.6687 177.449 86.0254 178.084 86.3276C178.477 86.5088 178.748 86.5088 179.262 86.2973C179.897 86.0556 185.486 82.2184 187.39 81.5235C187.813 81.3724 187.783 81.04 187.541 81.0702Z" fill="#111111"/>
<path d="M220.626 82.4299C220.052 82.6716 219.236 83.004 218.299 83.427C219.145 83.0644 219.931 82.7321 220.626 82.4299Z" fill="#111111"/>
<path d="M211.894 85.9045C211.894 85.0585 212.347 81.6443 212.74 80.4659C212.71 80.2242 212.468 79.9523 211.894 80.0429C209.9 80.3149 203.585 83.6989 199.808 85.7535C199.687 85.8139 199.204 85.8743 198.75 85.8139C192.557 85.0283 192.557 83.1248 192.557 82.309C192.557 80.2846 194.974 79.4689 196.605 79.4689C198.418 79.4689 199.687 80.6774 199.748 81.463C199.083 81.6141 196.484 82.2788 195.85 82.3392C195.548 82.3694 195.487 82.7018 195.88 82.6112C196.515 82.4601 199.053 81.5536 200.261 81.4328C200.684 81.4026 200.684 81.1911 200.624 81.04C199.868 79.1667 196.787 79.2574 194.43 79.6804C193.161 79.9221 191.439 80.4357 190.321 80.617C190.321 80.6774 190.472 80.8285 190.804 80.7379C192.013 80.4055 192.859 80.0731 194.853 79.6501C193.916 79.8616 190.502 81.2515 190.502 83.155C190.502 85.7535 194.037 86.811 197.24 86.811C197.542 86.811 198.66 86.5692 199.264 86.2067C203.132 84.001 205.67 82.4601 209.477 80.8285C209.658 80.7379 209.749 80.7681 209.779 80.9494C209.809 81.4932 208.872 85.8139 208.872 86.2067C208.872 86.8412 210.806 86.539 211.32 86.6901C213.102 85.7535 216.033 84.3938 218.299 83.3967C216.517 84.1823 214.462 85.0887 212.468 85.9952C212.105 86.2067 211.894 86.2671 211.894 85.9045Z" fill="#111111"/>
<path d="M244.616 79.62C244.616 79.1365 244.979 79.1365 245.25 79.0157C245.281 78.925 245.281 78.8646 245.19 78.8948C244.707 79.1063 244.163 79.5293 243.679 79.9523C242.712 80.194 233.588 84.5751 232.712 84.9679C232.44 85.0888 231.171 85.5722 230.204 85.119C227.998 84.0917 226.789 82.4903 226.034 81.8256C225.339 81.2213 224.886 80.9796 223.285 81.2818C222.831 81.463 221.865 81.8558 220.626 82.3997C221.079 82.2184 221.381 82.0976 221.472 82.0976C221.442 82.1882 221.985 81.9163 222.559 82.3393C224.01 83.3363 226.276 85.4211 228.028 86.1463C228.814 86.4484 229.72 86.388 230.325 86.2369C230.989 86.0859 237.123 82.7321 241.383 81.0703C242.018 80.8285 242.531 81.0098 242.682 81.1609C244.314 82.7018 245.281 83.9708 246.459 84.7262C246.489 86.6901 243.83 87.1131 243.196 87.1131C241.806 87.1131 239.419 86.4182 239.117 85.7535C239.026 85.8441 238.694 85.965 238.845 86.2671C239.057 86.6297 240.809 87.1434 243.256 87.1434C245.764 87.1434 248.03 85.7535 248.03 84.2428C248 83.0644 244.616 80.6473 244.616 79.62Z" fill="#111111"/>
</g>
<defs>
<clipPath id="clip0_2_473">
<rect width="248" height="27.0721" fill="white" transform="translate(0 60.464)"/>
</clipPath>
</defs>
</svg>
