<svg width="248" height="148" viewBox="0 0 248 148" fill="none" xmlns="http://www.w3.org/2000/svg">
<g clip-path="url(#clip0_2_501)">
<path fill-rule="evenodd" clip-rule="evenodd" d="M0.582153 55.6923L9.25304 93.4223H18.2754L26.3605 55.5751H19.7987L14.0572 83.6969L8.44262 55.6605L0.582153 55.6923Z" fill="#111111"/>
<path fill-rule="evenodd" clip-rule="evenodd" d="M19.4199 55.1111H26.9341L18.6508 93.8863H8.88361L0 55.2306L8.82261 55.195L14.0616 81.3559L19.4199 55.1111ZM20.1776 56.0391L14.5118 83.7897L13.6022 83.788L8.06266 56.126L1.16434 56.1539L9.62251 92.9583H17.9001L25.7869 56.0391H20.1776Z" fill="#111111"/>
<path fill-rule="evenodd" clip-rule="evenodd" d="M37.1563 87.4405L37.1976 76.3406L49.675 76.3205V71.0022H37.2391L37.1563 71.0424V61.6548L50.5456 61.5843L50.5871 55.5308L30.3994 55.5709L30.358 93.2421H50.5872L50.5603 87.3669L37.1563 87.4405Z" fill="#111111"/>
<path fill-rule="evenodd" clip-rule="evenodd" d="M51.048 55.0721L51.0003 62.0397L37.6141 62.1102V70.5445H50.1328V76.7775L37.6537 76.7976L37.6158 86.9803L51.016 86.9067L51.047 93.6998H29.8999L29.9423 55.1141L51.048 55.0721ZM37.3444 71.4599L36.6986 71.7733V61.1995L50.0911 61.129L50.1263 55.9894L30.8567 56.0277L30.8163 92.7844H50.1274L50.1048 87.8272L36.6969 87.9007L36.7417 75.8836L49.2174 75.8635V71.4599H37.3444Z" fill="#111111"/>
<path fill-rule="evenodd" clip-rule="evenodd" d="M88.0745 87.1431L88.1159 76.0433L100.593 76.0231V70.7048H88.1573L88.0745 70.745V61.3575L101.464 61.287L101.505 55.2334L81.3176 55.2736L81.2762 92.9447H101.505L101.479 87.0696L88.0745 87.1431Z" fill="#111111"/>
<path fill-rule="evenodd" clip-rule="evenodd" d="M101.966 54.7748L101.918 61.7423L88.5321 61.8128V70.2471H101.051V76.4801L88.5718 76.5003L88.5339 86.6829L101.934 86.6093L101.965 93.4024H80.818L80.8604 54.8168L101.966 54.7748ZM88.2625 71.1626L87.6167 71.4759V60.9022L101.009 60.8317L101.044 55.692L81.7748 55.7304L81.7344 92.487H101.046L101.023 87.5298L87.615 87.6034L87.6598 75.5863L100.135 75.5661V71.1626H88.2625Z" fill="#111111"/>
<path fill-rule="evenodd" clip-rule="evenodd" d="M151.349 87.3775L151.39 76.2776L163.867 76.2575V70.9393H151.431L151.348 70.9794V61.5919L164.738 61.5213L164.779 55.4678L144.592 55.508L144.55 93.1791H164.779L164.753 87.3039L151.349 87.3775Z" fill="#111111"/>
<path fill-rule="evenodd" clip-rule="evenodd" d="M165.24 55.009L165.192 61.9766L151.806 62.0471V70.4814H164.325V76.7143L151.846 76.7345L151.808 86.9172L165.208 86.8436L165.239 93.6367H144.092L144.134 55.0511L165.24 55.009ZM151.536 71.3969L150.891 71.7096V61.1364L164.283 61.0659L164.318 55.9263L145.049 55.9647L145.008 92.7213H164.32L164.297 87.764L150.889 87.8376L150.934 75.8206L163.41 75.8004V71.3969H151.536Z" fill="#111111"/>
<path fill-rule="evenodd" clip-rule="evenodd" d="M77.1771 55.04H53.9778V61.4198H62.4552L62.429 61.5027V93.2361H68.9745V61.2542L68.7826 61.4198L77.1782 61.3737L77.1771 55.04Z" fill="#111111"/>
<path fill-rule="evenodd" clip-rule="evenodd" d="M53.5139 54.576H77.6411L77.6424 61.8352L69.4386 61.8802V93.7001H61.9651V61.8838H53.5139V54.576ZM62.8931 61.5742V92.7721H68.5106V61.8853L67.527 61.8907L69.4386 60.2408V60.9522L76.7143 60.9123L76.7133 55.504H54.4419V60.9559H63.0884L62.8931 61.5742Z" fill="#111111"/>
<path fill-rule="evenodd" clip-rule="evenodd" d="M221.103 54.7562H197.903V61.136H206.381L206.355 61.2189V92.9523H212.9V60.9704L212.708 61.136L221.104 61.0899L221.103 54.7562Z" fill="#111111"/>
<path fill-rule="evenodd" clip-rule="evenodd" d="M197.439 54.2922H221.566L221.568 61.5514L213.364 61.5964V93.4162H205.891V61.6H197.439V54.2922ZM206.819 61.2904V92.4883H212.436V61.6015L211.452 61.6069L213.364 59.957V60.6684L220.64 60.6285L220.639 55.2202H198.367V60.672H207.014L206.819 61.2904Z" fill="#111111"/>
<path fill-rule="evenodd" clip-rule="evenodd" d="M112.952 93.4223H106.859V54.8721H117.288L122.912 82.1736L128.69 54.8721H139.316V93.4223H133.458L132.989 63.4258L125.841 93.4223M125.841 93.4223H120.569L113.187 63.1914L112.952 93.4223" fill="#111111"/>
<path fill-rule="evenodd" clip-rule="evenodd" d="M106.395 54.4081H117.666L122.918 79.9038L128.314 54.4081H139.78V93.8863H133.001L132.583 67.1319L126.208 93.8863H120.204L113.621 66.9289L113.412 93.8863H106.395V54.4081ZM107.323 55.3361V92.9583H112.492L112.722 63.1878L113.637 63.0813L120.933 92.9583H125.475L132.537 63.3182L133.453 63.4185L133.914 92.9583H138.852V55.3361H129.066L123.366 82.2697L122.457 82.2672L116.909 55.3361H107.323Z" fill="#111111"/>
<path fill-rule="evenodd" clip-rule="evenodd" d="M169.355 54.8207L169.394 93.7331H175.608V66.4739L185.672 93.7023L193.754 93.7331V54.7914H187.457V81.3048L178.294 54.7914L169.355 54.8207Z" fill="#111111"/>
<path fill-rule="evenodd" clip-rule="evenodd" d="M178.624 54.3263L186.993 78.5417V54.3274H194.218V94.1988L185.348 94.165L176.072 69.0678V94.1971H168.931L168.891 54.3582L178.624 54.3263ZM187.921 55.2554V81.3048L187.018 81.4564L177.964 55.2564L169.819 55.2832L169.858 93.2691H175.144V66.4739L176.044 66.3131L185.995 93.2395L193.29 93.2673V55.2554H187.921Z" fill="#111111"/>
<path fill-rule="evenodd" clip-rule="evenodd" d="M239.805 64.7897H246.121C246.121 64.7897 246.346 61.8589 246.039 60.4425C245.805 59.3654 245.413 58.2697 244.726 57.4078C243.677 56.0904 242.213 55.0526 240.653 54.4169C238.931 53.715 235.13 53.6348 235.13 53.6348C235.13 53.6348 231.837 53.6413 230.29 54.1269C228.947 54.5485 227.614 55.2025 226.599 56.1774C225.652 57.0868 225.027 58.3174 224.549 59.5403C224.041 60.8388 223.85 62.2526 223.729 63.6414C223.626 64.8129 223.65 66.0034 223.811 67.1683C223.976 68.3705 224.12 69.6367 224.713 70.6953C225.384 71.8928 226.52 72.7806 227.584 73.6481C228.489 74.3861 230.536 75.5346 230.536 75.5346C230.536 75.5346 232.707 76.6836 233.793 77.1891C234.627 77.5768 235.468 78.0528 236.278 78.4874C236.886 78.8137 237.544 79.1184 238 79.6357C238.486 80.1857 239.277 80.7551 239.565 81.4302C239.917 82.2577 239.81 83.2508 239.887 84.1469C239.955 84.9485 239.828 85.8017 239.477 86.5255C239.156 87.1874 238.632 87.7891 238 88.166C237.203 88.6416 235.294 88.576 235.294 88.576C235.294 88.576 233.719 88.524 232.997 88.248C232.26 87.9665 231.594 87.4858 231.029 86.9356C230.621 86.5387 230.247 86.0728 230.044 85.5413C229.789 84.8728 229.839 84.1231 229.798 83.4087C229.762 82.7809 229.798 81.5222 229.798 81.5222H223.236C223.236 81.5222 222.919 85.2136 223.236 87.0177C223.348 87.648 223.572 88.2685 223.893 88.8221C224.36 89.6277 225 90.3377 225.697 90.9547C226.407 91.5828 227.203 92.1442 228.018 92.6291C228.711 93.0421 229.451 93.3827 230.208 93.6614C230.943 93.9317 231.726 94.0711 232.505 94.1536C233.13 94.2198 234.681 94.3275 234.681 94.3275C234.681 94.3275 236.206 94.4074 236.992 94.3275C237.818 94.2437 238.654 94.058 239.477 93.8254C240.054 93.6623 240.58 93.3541 241.117 93.0873C241.731 92.7824 242.353 92.4856 242.922 92.103C243.691 91.5854 244.474 91.0489 245.074 90.3424C245.739 89.5598 246.222 88.6235 246.613 87.6738C247.021 86.6802 247.271 85.619 247.433 84.557C247.546 83.8186 247.535 82.3184 247.535 82.3184C247.535 82.3184 247.46 80.1506 247.095 79.0955C246.768 78.1504 245.609 76.4807 245.609 76.4807L243.944 75.0524L241.251 73.5139L238.411 71.9256C238.411 71.9256 234.764 70.1217 233.161 68.8908C232.425 68.3257 231.644 67.733 231.193 66.9223C230.728 66.088 230.55 65.0884 230.536 64.1335C230.518 62.9058 230.548 61.5148 231.275 60.5246C231.774 59.8436 232.681 59.5385 233.489 59.2942C234.146 59.0959 234.861 59.0301 235.54 59.1302C236.208 59.2288 236.854 59.5093 237.426 59.8684C237.869 60.1461 238.236 60.5369 238.575 60.9347C238.958 61.3851 239.359 61.8546 239.559 62.4111C239.829 63.1611 239.805 64.7897 239.805 64.7897Z" fill="#111111"/>
<path fill-rule="evenodd" clip-rule="evenodd" d="M235.134 53.1708L235.139 53.1709L235.13 53.6348L235.129 53.1708L235.134 53.1708ZM246.12 64.7897C246.583 64.8253 246.583 64.8252 246.583 64.8252L246.583 64.825L246.583 64.8245L246.584 64.8158C246.584 64.8098 246.585 64.8011 246.586 64.7899C246.587 64.7673 246.59 64.7343 246.592 64.6921C246.598 64.6075 246.606 64.4856 246.614 64.3351C246.631 64.0343 246.649 63.6181 246.659 63.1564C246.676 62.2487 246.658 61.1118 246.492 60.3442C246.251 59.2331 245.838 58.0593 245.089 57.1186C243.985 55.7326 242.453 54.6496 240.828 53.9872C239.896 53.6072 238.451 53.4081 237.288 53.3006C236.697 53.2459 236.161 53.2136 235.773 53.1948C235.579 53.1855 235.421 53.1795 235.312 53.1759C235.257 53.174 235.214 53.1728 235.185 53.172C235.171 53.1716 235.159 53.1714 235.152 53.1712L235.143 53.171L235.139 53.1709C235.139 53.1709 235.139 53.1709 235.13 53.6348C235.129 53.1708 235.129 53.1708 235.129 53.1708L235.118 53.1708C235.111 53.1709 235.102 53.1709 235.089 53.171C235.064 53.1712 235.027 53.1715 234.979 53.172C234.885 53.1732 234.748 53.1754 234.58 53.1795C234.243 53.1878 233.777 53.204 233.262 53.2356C232.247 53.2978 230.985 53.4224 230.151 53.6842C228.767 54.1188 227.362 54.8019 226.278 55.8427C225.258 56.8219 224.603 58.1273 224.117 59.3715C223.584 60.7346 223.388 62.2033 223.266 63.601C223.161 64.8055 223.185 66.0308 223.351 67.2317C223.362 67.31 223.372 67.3893 223.383 67.4693C223.535 68.5856 223.706 69.8475 224.308 70.9222C224.989 72.1373 226.108 73.0465 227.106 73.8575C227.168 73.908 227.229 73.958 227.29 74.0077C227.771 74.3994 228.534 74.8859 229.159 75.2647C229.475 75.4565 229.762 75.6249 229.97 75.7453C230.074 75.8055 230.159 75.8538 230.217 75.8871C230.247 75.9038 230.269 75.9167 230.285 75.9256L230.303 75.9356L230.309 75.9392C230.309 75.9392 230.309 75.9393 230.536 75.5346L230.309 75.9393L230.314 75.942L230.319 75.9447L230.536 75.5346C230.319 75.9447 230.319 75.9446 230.319 75.9447L230.319 75.9447L230.32 75.9449L230.344 75.9579C230.36 75.9665 230.384 75.9791 230.415 75.9954C230.477 76.0279 230.566 76.075 230.677 76.1329C230.898 76.2489 231.204 76.4088 231.544 76.5845C232.222 76.9348 233.044 77.3525 233.597 77.6098C234.23 77.9041 234.864 78.2488 235.5 78.5943C235.686 78.6953 235.872 78.7964 236.058 78.8962C236.143 78.9417 236.226 78.9856 236.308 79.0286C236.851 79.3157 237.316 79.5617 237.652 79.9428C237.818 80.1301 238.032 80.3345 238.232 80.5263C238.337 80.6269 238.439 80.7241 238.528 80.8136C238.817 81.1032 239.031 81.3615 239.138 81.6119C239.282 81.9519 239.34 82.3436 239.366 82.7898C239.377 82.9803 239.382 83.172 239.387 83.3715C239.388 83.4052 239.389 83.4391 239.39 83.4733C239.396 83.7057 239.404 83.9476 239.424 84.1863C239.487 84.917 239.369 85.6846 239.059 86.323C238.774 86.9117 238.309 87.4415 237.763 87.7675C237.628 87.8478 237.417 87.9199 237.146 87.9765C236.882 88.0317 236.59 88.066 236.313 88.0867C236.038 88.1072 235.785 88.1136 235.601 88.1149C235.509 88.1155 235.435 88.1148 235.385 88.114C235.359 88.1136 235.34 88.1132 235.327 88.1128C235.321 88.1127 235.316 88.1125 235.313 88.1124L235.31 88.1123L235.31 88.1123L235.309 88.1123L235.309 88.1123L235.308 88.1123L235.306 88.1122L235.293 88.1117C235.283 88.1113 235.266 88.1107 235.245 88.1097C235.202 88.1079 235.14 88.1049 235.063 88.1004C234.909 88.0915 234.696 88.0768 234.462 88.0538C233.975 88.006 233.459 87.9277 233.163 87.8146C232.501 87.5617 231.886 87.1229 231.352 86.6032C230.968 86.2293 230.647 85.8186 230.478 85.3758C230.374 85.1034 230.327 84.801 230.304 84.4608C230.292 84.291 230.287 84.1179 230.282 83.9364L230.281 83.8936C230.276 83.7277 230.271 83.5542 230.261 83.3821C230.244 83.086 230.244 82.6289 230.249 82.2353C230.251 82.0408 230.254 81.8655 230.257 81.7389C230.258 81.6756 230.26 81.6246 230.26 81.5894C230.261 81.5718 230.261 81.5583 230.262 81.5491L230.262 81.5356L230.262 81.5355L230.276 81.0582H222.811L222.774 81.4824L223.236 81.5222C222.774 81.4824 222.774 81.4823 222.774 81.4824L222.773 81.494C222.773 81.5013 222.772 81.5121 222.77 81.5262C222.768 81.5544 222.765 81.5956 222.761 81.6486C222.753 81.7545 222.741 81.9075 222.729 82.0964C222.704 82.4742 222.674 82.9971 222.653 83.5774C222.614 84.724 222.611 86.1426 222.779 87.0982C222.9 87.781 223.142 88.4532 223.491 89.0549C223.99 89.9156 224.667 90.6631 225.39 91.3022C226.125 91.9528 226.946 92.5309 227.78 93.0278C228.502 93.4574 229.267 93.8097 230.048 94.0969C230.833 94.3855 231.658 94.5304 232.456 94.615C232.777 94.6489 233.328 94.6929 233.793 94.7281C234.026 94.7457 234.24 94.7613 234.396 94.7725C234.474 94.7781 234.537 94.7825 234.581 94.7856L234.648 94.7903L234.649 94.7904L234.649 94.7904C234.649 94.7904 234.649 94.7904 234.681 94.3276L234.649 94.7904L234.653 94.7907L234.657 94.7909L234.681 94.3276C234.657 94.7909 234.657 94.7909 234.657 94.7909L234.657 94.7909L234.658 94.791L234.676 94.7918C234.687 94.7924 234.705 94.7933 234.727 94.7943C234.771 94.7964 234.835 94.7992 234.913 94.8024C235.071 94.8087 235.289 94.8163 235.532 94.8214C236.012 94.8313 236.615 94.8322 237.039 94.7892C237.901 94.7016 238.765 94.5089 239.603 94.2719C240.106 94.1298 240.583 93.8835 241.007 93.6643C241.116 93.6079 241.222 93.5534 241.324 93.5028C241.384 93.4726 241.446 93.4422 241.508 93.4116C242.057 93.1397 242.642 92.8508 243.181 92.4879C243.943 91.9749 244.78 91.4055 245.428 90.6428C246.137 89.8079 246.642 88.8217 247.042 87.8503C247.469 86.8119 247.726 85.7121 247.892 84.627C247.953 84.2252 247.979 83.6386 247.99 83.1721C247.996 82.9347 247.998 82.721 247.999 82.5666C247.999 82.4894 247.999 82.4269 247.999 82.3835C247.999 82.3618 247.999 82.3449 247.999 82.3333L247.999 82.3152C247.999 82.3152 247.999 82.3151 247.535 82.3184L247.999 82.3151L247.999 82.3087L247.998 82.3024L247.535 82.3184C247.998 82.3024 247.998 82.3024 247.998 82.3024L247.998 82.3021L247.998 82.3017L247.998 82.295L247.997 82.2755C247.997 82.2585 247.996 82.2339 247.994 82.2023C247.991 82.1392 247.987 82.0484 247.981 81.9364C247.968 81.7125 247.946 81.4026 247.914 81.0585C247.849 80.3852 247.736 79.5293 247.533 78.9438C247.351 78.4171 246.954 77.7238 246.624 77.1899C246.455 76.9167 246.297 76.674 246.181 76.4996C246.123 76.4124 246.076 76.342 246.042 76.2932C246.026 76.2688 246.013 76.2498 246.004 76.2367L245.993 76.2217L245.991 76.2177L245.99 76.2162C245.99 76.2161 245.99 76.2161 245.608 76.4807L245.99 76.2162L245.956 76.1673L244.213 74.6715L241.48 73.11L238.627 71.5149L238.616 71.5097L238.606 71.5049L238.576 71.4898C238.55 71.4766 238.51 71.4568 238.459 71.4312C238.357 71.38 238.21 71.3053 238.028 71.2118C237.663 71.0246 237.161 70.7624 236.609 70.4622C235.496 69.8568 234.213 69.1135 233.444 68.5228C232.689 67.9435 231.994 67.4078 231.598 66.6965C231.183 65.952 231.014 65.036 231 64.1267C230.982 62.8744 231.028 61.6449 231.649 60.799C232.042 60.2624 232.789 59.9905 233.623 59.7384C234.22 59.558 234.867 59.4999 235.472 59.5892C236.06 59.676 236.646 59.9261 237.179 60.2613C237.559 60.4995 237.888 60.8444 238.221 61.2354C238.616 61.6993 238.955 62.1051 239.122 62.5682C239.232 62.8719 239.292 63.4036 239.32 63.9073C239.333 64.1494 239.338 64.3695 239.34 64.5291C239.341 64.6088 239.341 64.673 239.341 64.717C239.341 64.7286 239.341 64.7387 239.341 64.7473C239.341 64.7552 239.341 64.7618 239.341 64.7671L239.341 64.7795L239.341 64.7824L239.341 64.7829L239.334 65.2537H246.55L246.583 64.8252L246.12 64.7897ZM240.265 64.3258H245.685C245.686 64.3122 245.687 64.2983 245.688 64.2842C245.704 63.9912 245.722 63.5863 245.731 63.1382C245.749 62.2264 245.726 61.1897 245.585 60.5409C245.359 59.4978 244.987 58.4802 244.363 57.6969C243.368 56.4483 241.972 55.4557 240.478 54.8466C239.688 54.5247 238.371 54.3327 237.203 54.2246C236.629 54.1715 236.107 54.14 235.728 54.1217C235.539 54.1126 235.386 54.1068 235.281 54.1033C235.228 54.1016 235.188 54.1004 235.16 54.0997C235.147 54.0993 235.136 54.099 235.129 54.0989L235.125 54.0988L235.122 54.0988C235.116 54.0988 235.107 54.0989 235.095 54.0989C235.072 54.0991 235.036 54.0994 234.991 54.1C234.899 54.1011 234.767 54.1032 234.602 54.1072C234.274 54.1153 233.82 54.1311 233.318 54.1618C232.3 54.2243 231.142 54.3457 230.429 54.5696C229.128 54.9782 227.867 55.6032 226.921 56.5121C226.046 57.3517 225.45 58.5076 224.981 59.7092C224.499 60.9431 224.311 62.3018 224.191 63.6817C224.091 64.8203 224.115 65.9759 224.27 67.105C224.279 67.1701 224.288 67.2349 224.297 67.2996C224.455 68.4597 224.605 69.554 225.118 70.4684C225.709 71.5236 226.698 72.3285 227.732 73.1704C227.78 73.2097 227.828 73.249 227.877 73.2885C228.302 73.6348 229.014 74.0916 229.64 74.4715C229.949 74.659 230.23 74.8239 230.435 74.942C230.537 75.0009 230.619 75.0481 230.676 75.0805C230.704 75.0967 230.726 75.1091 230.741 75.1175L230.758 75.1269L230.76 75.1278L230.778 75.1374C230.794 75.1459 230.817 75.1584 230.848 75.1745C230.909 75.2068 230.998 75.2535 231.108 75.3111C231.328 75.4264 231.632 75.5854 231.97 75.7601C232.649 76.1107 233.455 76.5202 233.989 76.7684C234.65 77.0761 235.319 77.4397 235.959 77.7875C236.141 77.8864 236.321 77.9839 236.497 78.0786C236.57 78.1179 236.647 78.158 236.726 78.1992C237.256 78.477 237.89 78.8094 238.348 79.3286C238.491 79.4908 238.65 79.6416 238.827 79.8103C238.939 79.9168 239.058 80.0305 239.185 80.1585C239.486 80.4599 239.811 80.8239 239.991 81.2485C240.199 81.7361 240.264 82.2546 240.292 82.7359C240.304 82.9424 240.31 83.1509 240.315 83.3496C240.316 83.3827 240.317 83.4156 240.318 83.4482C240.324 83.6799 240.331 83.8981 240.349 84.1074C240.424 84.98 240.287 85.9187 239.894 86.7281C239.537 87.4631 238.955 88.1366 238.238 88.5644C237.974 88.722 237.647 88.82 237.336 88.8849C237.018 88.9512 236.683 88.9897 236.382 89.0121C236.081 89.0346 235.806 89.0415 235.608 89.0428C235.508 89.0435 235.427 89.0428 235.37 89.0419C235.341 89.0414 235.319 89.0409 235.303 89.0405L235.293 89.0402L235.285 89.04L235.28 89.0398L235.278 89.0398L235.278 89.0398L235.278 89.0398H235.278L235.273 89.0396L235.258 89.039C235.245 89.0386 235.227 89.0378 235.204 89.0368C235.158 89.0348 235.091 89.0315 235.01 89.0268C234.846 89.0174 234.62 89.0018 234.371 88.9773C233.889 88.93 233.258 88.8443 232.831 88.6814C232.02 88.3713 231.301 87.8486 230.705 87.268C230.273 86.8481 229.848 86.3269 229.611 85.7068C229.459 85.3107 229.404 84.904 229.378 84.5236C229.365 84.3331 229.359 84.143 229.354 83.9622L229.353 83.9216C229.348 83.753 229.344 83.593 229.335 83.4353C229.316 83.1036 229.316 82.6174 229.321 82.2247C229.322 82.1409 229.323 82.0606 229.324 81.9862H223.666C223.663 82.0392 223.659 82.0966 223.655 82.1579C223.63 82.5286 223.601 83.0414 223.581 83.6095C223.541 84.7595 223.544 86.0887 223.693 86.9372C223.795 87.515 224.001 88.0838 224.294 88.5894C224.729 89.3397 225.332 90.0124 226.004 90.6072C226.689 91.2128 227.461 91.7576 228.255 92.2304C228.921 92.6268 229.634 92.9556 230.368 93.226C231.053 93.4779 231.795 93.6118 232.554 93.6922C232.858 93.7244 233.395 93.7674 233.863 93.8027C234.095 93.8203 234.308 93.8358 234.462 93.8469C234.501 93.8496 234.535 93.8521 234.566 93.8543C234.597 93.8565 234.624 93.8584 234.646 93.86L234.696 93.8635L234.706 93.8642L234.709 93.8644L234.709 93.8644L234.722 93.865C234.733 93.8656 234.749 93.8664 234.77 93.8673C234.812 93.8693 234.874 93.8721 234.951 93.8752C235.104 93.8813 235.316 93.8887 235.552 93.8936C236.031 93.9036 236.583 93.9027 236.945 93.8659C237.735 93.7857 238.544 93.6071 239.35 93.379C239.754 93.2648 240.122 93.0755 240.535 92.8631C240.655 92.8008 240.78 92.7366 240.911 92.6717C240.972 92.6415 241.032 92.6115 241.092 92.5816C241.65 92.3054 242.178 92.0443 242.663 91.7181C243.438 91.1959 244.168 90.6924 244.72 90.0421C245.341 89.3118 245.802 88.4252 246.183 87.4974C246.574 86.5486 246.816 85.5259 246.974 84.487C247.026 84.1504 247.051 83.6177 247.062 83.1495C247.068 82.9195 247.07 82.7121 247.071 82.562C247.071 82.4871 247.071 82.4267 247.071 82.3851C247.071 82.3643 247.071 82.3483 247.071 82.3376L247.071 82.3282L247.07 82.3121C247.07 82.2968 247.069 82.2739 247.067 82.2441C247.065 82.1845 247.06 82.0977 247.054 81.9901C247.042 81.7745 247.021 81.4765 246.99 81.1468C246.925 80.4724 246.819 79.7168 246.656 79.2472C246.512 78.8288 246.166 78.2147 245.834 77.6775C245.672 77.4152 245.52 77.1814 245.408 77.0132C245.352 76.9291 245.307 76.8617 245.275 76.8155C245.27 76.8075 245.265 76.8001 245.26 76.7934L243.675 75.4333L241.025 73.9189L241.021 73.9167L238.194 72.3362L238.194 72.336L238.162 72.3203C238.134 72.3065 238.094 72.2863 238.042 72.2602C237.938 72.208 237.788 72.1321 237.604 72.0373C237.234 71.8477 236.725 71.582 236.165 71.2774C235.054 70.6731 233.712 69.899 232.878 69.2588C232.858 69.2432 232.838 69.2274 232.817 69.2116C232.112 68.6707 231.28 68.0323 230.787 67.1481C230.272 66.224 230.087 65.1408 230.072 64.1403C230.055 62.9371 230.068 61.3847 230.9 60.2502C231.506 59.4248 232.572 59.0866 233.355 58.8501C234.071 58.6337 234.856 58.5602 235.607 58.6712C236.356 58.7817 237.063 59.0925 237.673 59.4754C238.178 59.7928 238.584 60.2295 238.928 60.6339L238.954 60.6644C239.321 61.0956 239.767 61.6191 239.995 62.2539C240.156 62.7003 240.219 63.3579 240.246 63.856C240.256 64.0273 240.261 64.1878 240.265 64.3258Z" fill="#111111"/>
</g>
<defs>
<clipPath id="clip0_2_501">
<rect width="248" height="41.6584" fill="white" transform="translate(0 53.1708)"/>
</clipPath>
</defs>
</svg>
